<?xml version="1.0" encoding="UTF-8" standalone="no"?>
<svg width="120px" height="34px" viewBox="0 0 120 34" version="1.1" xmlns="http://www.w3.org/2000/svg" xmlns:xlink="http://www.w3.org/1999/xlink" xmlns:sketch="http://www.bohemiancoding.com/sketch/ns">
    <!-- Generator: Sketch 3.2.2 (9983) - http://www.bohemiancoding.com/sketch -->
    <title>squadup</title>
    <desc>Created with Sketch.</desc>
    <defs></defs>
    <g id="Page-1" stroke="none" stroke-width="1" fill="none" fill-rule="evenodd" sketch:type="MSPage">
        <g id="Artboard-1" sketch:type="MSArtboardGroup" transform="translate(-40.000000, -2.000000)" fill="#FFFFFF">
            <path d="M51.8612717,14.4939759 C51.5375706,14.1526087 51.144511,13.8738297 50.6820809,13.6576305 C50.2196509,13.4414313 49.6994249,13.3333333 49.1213873,13.3333333 C48.5895927,13.3333333 48.1213893,13.4869463 47.716763,13.7941767 C47.3121367,14.1014072 47.1098266,14.5508672 47.1098266,15.1425703 C47.1098266,15.6204843 47.2601141,15.9902932 47.5606936,16.252008 C47.8612732,16.5137229 48.3814992,16.8266381 49.1213873,17.1907631 C49.6069388,17.441099 50.069362,17.7141886 50.5086705,18.0100402 C50.9479791,18.3058917 51.3352584,18.6472538 51.6705202,19.0341365 C52.005782,19.4210193 52.2774556,19.86479 52.4855491,20.3654618 C52.6936427,20.8661337 52.7976879,21.4236917 52.7976879,22.0381526 C52.7976879,23.198801 52.5838172,24.1830616 52.1560694,24.9909639 C51.7283216,25.7988662 51.1849744,26.4531434 50.5260116,26.9538153 C49.8670487,27.4544871 49.132952,27.8129173 48.3236994,28.0291165 C47.5144468,28.2453157 46.7283275,28.3534137 45.9653179,28.3534137 C44.7861213,28.3534137 43.6647452,28.1485964 42.6011561,27.7389558 C41.5375669,27.3293152 40.6705236,26.7831359 40,26.1004016 L42.8092486,22.8915663 C43.2254356,23.3467225 43.7051996,23.7165314 44.2485549,24.001004 C44.7919102,24.2854767 45.3641588,24.4277108 45.9653179,24.4277108 C46.520234,24.4277108 47.0057783,24.2684086 47.4219653,23.9497992 C47.8381524,23.6311898 48.0462428,23.1760404 48.0462428,22.5843373 C48.0462428,22.0609077 47.8381524,21.6228264 47.4219653,21.2700803 C47.0057783,20.9173342 46.4277494,20.5589041 45.6878613,20.1947791 C45.2254312,19.9899588 44.7976898,19.7510054 44.4046243,19.4779116 C44.0115587,19.2048179 43.6647414,18.8862133 43.3641618,18.5220884 C43.0635823,18.1579634 42.8265905,17.7426395 42.6531792,17.2761044 C42.4797679,16.8095693 42.3930636,16.2690794 42.3930636,15.6546185 C42.3930636,14.5622435 42.6069343,13.6234979 43.0346821,12.8383534 C43.4624299,12.0532089 44.0115573,11.4159998 44.6820809,10.9267068 C45.3526045,10.4374139 46.0982618,10.0789837 46.9190751,9.85140562 C47.7398885,9.62382751 48.5433487,9.51004016 49.3294798,9.51004016 C50.3930689,9.51004016 51.3814983,9.66934245 52.2947977,9.98795181 C53.2080971,10.3065612 53.9421938,10.7275744 54.4971098,11.251004 L51.8612717,14.4939759 Z M67.1907514,36 L62.2312139,36 L64.0346821,25.7590361 L63.9653179,25.7590361 C63.6184954,26.4645283 63.1271708,27.0732906 62.4913295,27.5853414 C61.8554882,28.0973921 61.0173462,28.3534137 59.9768786,28.3534137 C58.3814949,28.3534137 57.1849751,27.7674088 56.3872832,26.5953815 C55.5895914,25.4233542 55.1907514,23.9042931 55.1907514,22.0381526 C55.1907514,20.6499261 55.3583798,19.2162055 55.6936416,17.7369478 C56.0289034,16.2576901 56.520228,14.90931 57.1676301,13.6917671 C57.8150321,12.4742242 58.6184923,11.4728955 59.5780347,10.687751 C60.5375771,9.90260652 61.6300517,9.51004016 62.8554913,9.51004016 C63.9653235,9.51004016 64.8034654,9.77744043 65.3699422,10.312249 C65.936419,10.8470576 66.2890166,11.5127136 66.4277457,12.3092369 L66.4971098,12.3092369 L66.9132948,10.0562249 L71.7687861,10.0562249 L67.1907514,36 Z M65.6300578,16.815261 C65.6300578,15.9049486 65.4913309,15.1710202 65.2138728,14.6134538 C64.9364148,14.0558874 64.4624311,13.7771084 63.7919075,13.7771084 C63.2138699,13.7771084 62.7052045,14.0274406 62.265896,14.5281124 C61.8265874,15.0287843 61.4566489,15.6489254 61.1560694,16.3885542 C60.8554898,17.1281831 60.6300586,17.9246945 60.4797688,18.7781124 C60.329479,19.6315304 60.2543353,20.4109737 60.2543353,21.1164659 C60.2543353,21.9812627 60.3930622,22.6867443 60.6705202,23.2329317 C60.9479783,23.7791192 61.421962,24.0522088 62.0924855,24.0522088 C62.6705231,24.0522088 63.1791886,23.807566 63.6184971,23.3182731 C64.0578057,22.8289802 64.4277442,22.2202178 64.7283237,21.4919679 C65.0289032,20.7637179 65.2543345,19.9785852 65.4046243,19.1365462 C65.554914,18.2945072 65.6300578,17.5207532 65.6300578,16.815261 L65.6300578,16.815261 Z M87.583815,23.4718876 C87.537572,23.7677391 87.4797691,24.1204799 87.4104046,24.5301205 C87.3410401,24.9397611 87.2716766,25.3607743 87.2023121,25.7931727 C87.1329476,26.2255711 87.0693645,26.6238268 87.0115607,26.9879518 C86.9537569,27.3520768 86.9132949,27.6251664 86.8901734,27.8072289 L82.1387283,27.8072289 C82.1849713,27.4886196 82.2369939,27.0903638 82.2947977,26.6124498 C82.3526014,26.1345358 82.4161846,25.6680076 82.4855491,25.2128514 L82.3815029,25.2128514 C81.9190728,26.1231639 81.2890213,26.8741604 80.4913295,27.4658635 C79.6936376,28.0575665 78.7398899,28.3534137 77.6300578,28.3534137 C76.8901697,28.3534137 76.2658985,28.2282476 75.7572254,27.9779116 C75.2485524,27.7275757 74.8381518,27.3975924 74.5260116,26.9879518 C74.2138713,26.5783112 73.9826597,26.1174724 73.8323699,25.6054217 C73.6820802,25.0933709 73.6069364,24.5756385 73.6069364,24.0522088 C73.6069364,23.6198104 73.6358379,23.1362142 73.6936416,22.6014056 C73.7514454,22.0665971 73.8381497,21.5261071 73.9537572,20.9799197 L75.8612717,10.0562249 L80.9248555,10.0562249 L78.982659,20.9457831 C78.936416,21.1733612 78.9017342,21.3952466 78.8786127,21.6114458 C78.8554912,21.827645 78.8439306,22.0267729 78.8439306,22.2088353 C78.8439306,22.6867494 78.9421955,23.0963838 79.1387283,23.437751 C79.3352611,23.7791182 79.7109799,23.9497992 80.265896,23.9497992 C80.959541,23.9497992 81.5549108,23.6255053 82.0520231,22.9769076 C82.5491354,22.32831 82.8901725,21.491973 83.0751445,20.4678715 L84.9132948,10.0562249 L89.9768786,10.0562249 L87.583815,23.4718876 Z M104.959538,14.8012048 C104.959538,15.7115173 104.855492,16.7128459 104.647399,17.8052209 L103.50289,24.3253012 C103.456647,24.5756371 103.410405,24.8714842 103.364162,25.2128514 C103.317919,25.5542186 103.271677,25.8898913 103.225434,26.2198795 C103.179191,26.5498678 103.138728,26.862783 103.104046,27.1586345 C103.069364,27.4544861 103.052023,27.670682 103.052023,27.8072289 L98.8208092,27.8072289 C98.8439308,27.5341352 98.8843928,27.1700157 98.9421965,26.7148594 C99.0000003,26.2597032 99.0635835,25.884205 99.132948,25.5883534 L99.0289017,25.5883534 C98.6358362,26.3848768 98.1040496,27.0277753 97.433526,27.5170683 C96.7630024,28.0063612 95.8843985,28.251004 94.7976879,28.251004 C94.3121363,28.251004 93.8323723,28.1599741 93.3583815,27.9779116 C92.8843907,27.7958492 92.4566493,27.5227595 92.0751445,27.1586345 C91.6936397,26.7945096 91.3872844,26.3336708 91.1560694,25.7761044 C90.9248543,25.218538 90.8092486,24.5642608 90.8092486,23.813253 C90.8092486,22.5160578 91.0404601,21.4180098 91.5028902,20.5190763 C91.9653202,19.6201428 92.5838112,18.8919037 93.3583815,18.3343373 C94.1329518,17.776771 95.0346769,17.3728259 96.0635838,17.12249 C97.0924907,16.872154 98.1734047,16.746988 99.3063584,16.746988 L100.17341,16.746988 C100.289018,16.2235583 100.346821,15.8366813 100.346821,15.5863454 C100.346821,14.3574236 99.7572313,13.7429719 98.5780347,13.7429719 C97.9306326,13.7429719 97.3121417,13.8852061 96.7225434,14.1696787 C96.132945,14.4541514 95.6184993,14.789824 95.1791908,15.1767068 L93.2369942,12.002008 C94.0462468,11.2510003 94.9942142,10.6479273 96.0809249,10.1927711 C97.1676355,9.73761486 98.2658904,9.51004016 99.3757225,9.51004016 C101.34105,9.51004016 102.763001,9.98225766 103.641618,10.9267068 C104.520236,11.871156 104.959538,13.1626424 104.959538,14.8012048 L104.959538,14.8012048 Z M98.8208092,19.9899598 C98.3583792,19.9899598 97.9075166,20.0411641 97.4682081,20.1435743 C97.0288995,20.2459844 96.6416202,20.4166655 96.3063584,20.6556225 C95.9710966,20.8945795 95.7052033,21.196116 95.5086705,21.560241 C95.3121377,21.9243659 95.2138728,22.3567579 95.2138728,22.8574297 C95.2138728,23.4036172 95.3468195,23.8132516 95.6127168,24.0863454 C95.878614,24.3594391 96.2080905,24.4959839 96.6011561,24.4959839 C97.0173431,24.4959839 97.3930619,24.387886 97.7283237,24.1716867 C98.0635855,23.9554875 98.3525999,23.6710192 98.5953757,23.3182731 C98.8381515,22.965527 99.0404616,22.5729607 99.2023121,22.1405622 C99.3641627,21.7081638 99.491329,21.2757719 99.583815,20.8433735 L99.7572254,19.9899598 L98.8208092,19.9899598 Z M120.358382,27.8072289 L115.537572,27.8072289 L115.919075,25.5200803 L115.884393,25.5200803 C115.468206,26.3166037 114.936419,26.9879491 114.289017,27.5341365 C113.641615,28.080324 112.774572,28.3534137 111.687861,28.3534137 C110.90173,28.3534137 110.213876,28.1941114 109.624277,27.875502 C109.034679,27.5568927 108.549135,27.1188114 108.16763,26.561245 C107.786125,26.0036786 107.497111,25.3323332 107.300578,24.5471888 C107.104045,23.7620443 107.00578,22.9029498 107.00578,21.9698795 C107.00578,20.581653 107.173409,19.1536218 107.508671,17.685743 C107.843932,16.2178641 108.341037,14.8751734 109,13.6576305 C109.658963,12.4400876 110.462423,11.4444483 111.410405,10.6706827 C112.358386,9.89691715 113.456641,9.51004016 114.705202,9.51004016 C115.74567,9.51004016 116.531789,9.74330423 117.063584,10.2098394 C117.595378,10.6763745 117.930635,11.2851368 118.069364,12.0361446 L118.17341,12.0361446 L119.976879,2 L124.936416,2 L120.358382,27.8072289 Z M117.445087,16.8493976 C117.445087,15.9390851 117.300579,15.1994674 117.011561,14.6305221 C116.722542,14.0615768 116.254338,13.7771084 115.606936,13.7771084 C115.005777,13.7771084 114.485551,14.0274406 114.046243,14.5281124 C113.606934,15.0287843 113.236996,15.6489254 112.936416,16.3885542 C112.635837,17.1281831 112.410405,17.9246945 112.260116,18.7781124 C112.109826,19.6315304 112.034682,20.4109737 112.034682,21.1164659 C112.034682,21.9812627 112.179189,22.6867443 112.468208,23.2329317 C112.757227,23.7791192 113.236991,24.0522088 113.907514,24.0522088 C114.462431,24.0522088 114.959535,23.807566 115.398844,23.3182731 C115.838152,22.8289802 116.208091,22.2202178 116.508671,21.4919679 C116.80925,20.7637179 117.040462,19.9785852 117.202312,19.1365462 C117.364163,18.2945072 117.445087,17.5321319 117.445087,16.8493976 L117.445087,16.8493976 Z M139.190751,23.4718876 C139.144508,23.7677391 139.086706,24.1204799 139.017341,24.5301205 C138.947977,24.9397611 138.878613,25.3607743 138.809249,25.7931727 C138.739884,26.2255711 138.676301,26.6238268 138.618497,26.9879518 C138.560693,27.3520768 138.520231,27.6251664 138.49711,27.8072289 L133.745665,27.8072289 C133.791908,27.4886196 133.84393,27.0903638 133.901734,26.6124498 C133.959538,26.1345358 134.023121,25.6680076 134.092486,25.2128514 L133.988439,25.2128514 C133.526009,26.1231639 132.895958,26.8741604 132.098266,27.4658635 C131.300574,28.0575665 130.346826,28.3534137 129.236994,28.3534137 C128.497106,28.3534137 127.872835,28.2282476 127.364162,27.9779116 C126.855489,27.7275757 126.445088,27.3975924 126.132948,26.9879518 C125.820808,26.5783112 125.589596,26.1174724 125.439306,25.6054217 C125.289017,25.0933709 125.213873,24.5756385 125.213873,24.0522088 C125.213873,23.6198104 125.242774,23.1362142 125.300578,22.6014056 C125.358382,22.0665971 125.445086,21.5261071 125.560694,20.9799197 L127.468208,10.0562249 L132.531792,10.0562249 L130.589595,20.9457831 C130.543352,21.1733612 130.508671,21.3952466 130.485549,21.6114458 C130.462428,21.827645 130.450867,22.0267729 130.450867,22.2088353 C130.450867,22.6867494 130.549132,23.0963838 130.745665,23.437751 C130.942198,23.7791182 131.317916,23.9497992 131.872832,23.9497992 C132.566477,23.9497992 133.161847,23.6255053 133.65896,22.9769076 C134.156072,22.32831 134.497109,21.491973 134.682081,20.4678715 L136.520231,10.0562249 L141.583815,10.0562249 L139.190751,23.4718876 Z M159.306358,15.9277108 C159.306358,17.3159373 159.13873,18.7439686 158.803468,20.2118474 C158.468206,21.6797262 157.982662,23.0167276 157.346821,24.2228916 C156.710979,25.4290556 155.91908,26.4190055 154.971098,27.1927711 C154.023117,27.9665367 152.924862,28.3534137 151.676301,28.3534137 C150.635833,28.3534137 149.820812,28.1030815 149.231214,27.6024096 C148.641616,27.1017378 148.277457,26.4872861 148.138728,25.7590361 L148.069364,25.7590361 L146.265896,36 L141.34104,36 L145.884393,10.0562249 L150.67052,10.0562249 L150.289017,12.3092369 L150.358382,12.3092369 C150.820812,11.5127136 151.3815,10.8470576 152.040462,10.312249 C152.699425,9.77744043 153.514446,9.51004016 154.485549,9.51004016 C155.294802,9.51004016 155.999997,9.66934245 156.601156,9.98795181 C157.202315,10.3065612 157.7052,10.7503318 158.109827,11.3192771 C158.514453,11.8882224 158.815028,12.5652571 159.011561,13.3504016 C159.208093,14.1355461 159.306358,14.9946406 159.306358,15.9277108 L159.306358,15.9277108 Z M154.277457,16.7128514 C154.277457,15.8480546 154.132949,15.142573 153.843931,14.5963855 C153.554912,14.0501981 153.075148,13.7771084 152.404624,13.7771084 C151.849708,13.7771084 151.352603,14.0217512 150.913295,14.5110442 C150.473986,15.0003371 150.104048,15.6090994 149.803468,16.3373494 C149.502889,17.0655994 149.271677,17.8507321 149.109827,18.6927711 C148.947976,19.5348101 148.867052,20.3085641 148.867052,21.0140562 C148.867052,21.9243687 149.011559,22.6582971 149.300578,23.2158635 C149.589597,23.7734298 150.0578,24.0522088 150.705202,24.0522088 C151.28324,24.0522088 151.797686,23.8018767 152.248555,23.3012048 C152.699424,22.800533 153.075143,22.1803919 153.375723,21.4407631 C153.676302,20.7011342 153.901733,19.9046227 154.052023,19.0512048 C154.202313,18.1977869 154.277457,17.4183436 154.277457,16.7128514 L154.277457,16.7128514 Z" id="squadup" sketch:type="MSShapeGroup"></path>
        </g>
    </g>
</svg>